<mxfile host="app.diagrams.net" modified="2021-01-11T08:29:55.283Z" agent="5.0 (Windows NT 10.0; WOW64) AppleWebKit/537.36 (KHTML, like Gecko) Chrome/87.0.4280.141 Safari/537.36" etag="wQlxS-KIcbWrRm9e5E1m" version="13.10.4" type="github">
  <diagram id="o5ukSuMNCPF8j85WT8wc" name="Page-1">
    <mxGraphModel dx="1038" dy="579" grid="1" gridSize="10" guides="1" tooltips="1" connect="1" arrows="1" fold="1" page="1" pageScale="1" pageWidth="850" pageHeight="1100" math="0" shadow="0">
      <root>
        <mxCell id="0" />
        <mxCell id="1" parent="0" />
        <mxCell id="DEwqdntOc41sPYZJyCvG-2" value="" style="rounded=1;whiteSpace=wrap;html=1;absoluteArcSize=1;arcSize=14;strokeWidth=2;shadow=1;fillColor=#dae8fc;strokeColor=#6c8ebf;glass=0;sketch=0;" vertex="1" parent="1">
          <mxGeometry x="330" y="560" width="180" height="180" as="geometry" />
        </mxCell>
        <mxCell id="DEwqdntOc41sPYZJyCvG-28" style="edgeStyle=orthogonalEdgeStyle;rounded=0;orthogonalLoop=1;jettySize=auto;html=1;exitX=0.5;exitY=1;exitDx=0;exitDy=0;entryX=0;entryY=0.5;entryDx=0;entryDy=0;" edge="1" parent="1" source="DEwqdntOc41sPYZJyCvG-4" target="DEwqdntOc41sPYZJyCvG-9">
          <mxGeometry relative="1" as="geometry" />
        </mxCell>
        <mxCell id="DEwqdntOc41sPYZJyCvG-35" style="edgeStyle=orthogonalEdgeStyle;rounded=0;orthogonalLoop=1;jettySize=auto;html=1;exitX=0.5;exitY=1;exitDx=0;exitDy=0;entryX=0;entryY=0.5;entryDx=0;entryDy=0;" edge="1" parent="1" source="DEwqdntOc41sPYZJyCvG-4" target="DEwqdntOc41sPYZJyCvG-23">
          <mxGeometry relative="1" as="geometry" />
        </mxCell>
        <mxCell id="DEwqdntOc41sPYZJyCvG-4" value="&lt;span lang=&quot;EN-US&quot; style=&quot;font-size: 9.0pt ; font-family: &amp;#34;consolas&amp;#34; ; color: #3d3c40&quot;&gt;raw/&lt;/span&gt;" style="rounded=1;whiteSpace=wrap;html=1;absoluteArcSize=1;arcSize=14;strokeWidth=2;shadow=1;" vertex="1" parent="1">
          <mxGeometry x="250" y="430" width="99" height="100" as="geometry" />
        </mxCell>
        <mxCell id="DEwqdntOc41sPYZJyCvG-36" style="edgeStyle=orthogonalEdgeStyle;rounded=0;orthogonalLoop=1;jettySize=auto;html=1;exitX=0.5;exitY=1;exitDx=0;exitDy=0;entryX=0;entryY=0.75;entryDx=0;entryDy=0;" edge="1" parent="1" source="DEwqdntOc41sPYZJyCvG-9" target="DEwqdntOc41sPYZJyCvG-23">
          <mxGeometry relative="1" as="geometry" />
        </mxCell>
        <mxCell id="DEwqdntOc41sPYZJyCvG-9" value="&lt;span lang=&quot;EN-US&quot; style=&quot;font-size: 9.0pt ; font-family: &amp;#34;consolas&amp;#34; ; color: #3d3c40&quot;&gt;prod/&lt;/span&gt;" style="rounded=1;whiteSpace=wrap;html=1;absoluteArcSize=1;arcSize=14;strokeWidth=2;shadow=1;" vertex="1" parent="1">
          <mxGeometry x="140" y="605" width="100" height="100" as="geometry" />
        </mxCell>
        <mxCell id="DEwqdntOc41sPYZJyCvG-16" value="Explorative" style="text;html=1;strokeColor=none;fillColor=none;align=center;verticalAlign=middle;whiteSpace=wrap;rounded=0;shadow=1;" vertex="1" parent="1">
          <mxGeometry x="349" y="560" width="40" height="20" as="geometry" />
        </mxCell>
        <mxCell id="DEwqdntOc41sPYZJyCvG-23" value="&lt;span style=&quot;color: rgb(61 , 60 , 64) ; font-family: &amp;#34;consolas&amp;#34;&quot;&gt;dev/&lt;/span&gt;" style="rounded=1;whiteSpace=wrap;html=1;absoluteArcSize=1;arcSize=14;strokeWidth=2;shadow=1;" vertex="1" parent="1">
          <mxGeometry x="360" y="600" width="100" height="100" as="geometry" />
        </mxCell>
        <mxCell id="DEwqdntOc41sPYZJyCvG-25" style="edgeStyle=orthogonalEdgeStyle;rounded=0;orthogonalLoop=1;jettySize=auto;html=1;exitX=0.5;exitY=0;exitDx=0;exitDy=0;entryX=1;entryY=0.5;entryDx=0;entryDy=0;" edge="1" parent="1" source="DEwqdntOc41sPYZJyCvG-23" target="DEwqdntOc41sPYZJyCvG-23">
          <mxGeometry relative="1" as="geometry" />
        </mxCell>
        <mxCell id="DEwqdntOc41sPYZJyCvG-26" style="edgeStyle=orthogonalEdgeStyle;rounded=0;orthogonalLoop=1;jettySize=auto;html=1;exitX=0.5;exitY=0;exitDx=0;exitDy=0;entryX=1;entryY=0.5;entryDx=0;entryDy=0;" edge="1" parent="1" source="DEwqdntOc41sPYZJyCvG-9" target="DEwqdntOc41sPYZJyCvG-9">
          <mxGeometry relative="1" as="geometry" />
        </mxCell>
      </root>
    </mxGraphModel>
  </diagram>
</mxfile>
